<?xml version="1.0" encoding="UTF-8" standalone="no"?><!DOCTYPE svg PUBLIC "-//W3C//DTD SVG 1.1//EN" "http://www.w3.org/Graphics/SVG/1.1/DTD/svg11.dtd"><!-- Generated by graphviz version 2.40.1 (20161225.0304)
 --><!-- Title: G Pages: 1 --><svg xmlns="http://www.w3.org/2000/svg" xmlns:xlink="http://www.w3.org/1999/xlink" width="1381pt" height="632pt" viewBox="0.00 0.00 1381.00 631.96">
<g id="graph0" class="graph" transform="scale(1 1) rotate(0) translate(4 627.956)">
<title>G</title>
<polygon fill="#ffffff" stroke="transparent" points="-4,4 -4,-627.956 1377,-627.956 1377,4 -4,4"/>
<g id="clust1" class="cluster">
<title>cluster_0</title>
<polygon fill="#d3d3d3" stroke="#d3d3d3" points="8,-332.5602 8,-615.956 835,-615.956 835,-332.5602 8,-332.5602"/>
<text text-anchor="middle" x="421.5" y="-599.356" font-family="Times,serif" font-size="14.00" fill="#000000">Server</text>
</g>
<g id="clust2" class="cluster">
<title>cluster_1</title>
<polygon fill="#d3d3d3" stroke="#d3d3d3" points="843,-539.156 843,-615.956 915,-615.956 915,-539.156 843,-539.156"/>
<text text-anchor="middle" x="879" y="-599.356" font-family="Times,serif" font-size="14.00" fill="#000000">Memory</text>
</g>
<g id="clust4" class="cluster">
<title>cluster_t_1</title>
<polygon fill="none" stroke="#d3d3d3" points="923,-8 923,-615.956 1121,-615.956 1121,-8 923,-8"/>
<text text-anchor="middle" x="1022" y="-599.356" font-family="Times,serif" font-size="14.00" fill="#000000">main thread</text>
</g>
<g id="clust5" class="cluster">
<title>cluster_2</title>
<polygon fill="none" stroke="#d3d3d3" points="1027,-332.5602 1027,-409.3602 1113,-409.3602 1113,-332.5602 1027,-332.5602"/>
<text text-anchor="middle" x="1070" y="-392.7602" font-family="Times,serif" font-size="14.00" fill="#000000">run_server</text>
</g>
<g id="clust6" class="cluster">
<title>cluster_t_2</title>
<polygon fill="none" stroke="#0000ff" points="1227,-233.7874 1227,-310.5874 1365,-310.5874 1365,-233.7874 1227,-233.7874"/>
<text text-anchor="middle" x="1296" y="-293.9874" font-family="Times,serif" font-size="14.00" fill="#000000">thread #1</text>
</g>
<!-- points -->
<g id="node1" class="node">
<title>points</title>
<ellipse fill="#ffffff" stroke="#ffffff" cx="792" cy="-565.156" rx="34.7903" ry="18"/>
<text text-anchor="middle" x="792" y="-560.956" font-family="Times,serif" font-size="14.00" fill="#000000">points</text>
</g>
<!-- listen -->
<g id="node11" class="node">
<title>listen</title>
<ellipse fill="#ffffff" stroke="#ffffff" cx="787" cy="-358.5602" rx="31.9166" ry="18"/>
<text text-anchor="middle" x="787" y="-354.3602" font-family="Times,serif" font-size="14.00" fill="#000000">listen</text>
</g>
<!-- points&#45;&gt;listen -->
<g id="edge3" class="edge">
<title>points-&gt;listen</title>
<path fill="none" stroke="#000000" d="M791.5563,-546.822C790.6816,-510.6798 788.7293,-430.0136 787.6869,-386.9432"/>
<polygon fill="#000000" stroke="#000000" points="791.1837,-386.7655 787.4427,-376.8531 784.1858,-386.9349 791.1837,-386.7655"/>
</g>
<!-- socket -->
<g id="node2" class="node">
<title>socket</title>
<ellipse fill="#ffffff" stroke="#ffffff" cx="704" cy="-565.156" rx="35.9135" ry="18"/>
<text text-anchor="middle" x="704" y="-560.956" font-family="Times,serif" font-size="14.00" fill="#000000">socket</text>
</g>
<!-- bind -->
<g id="node10" class="node">
<title>bind</title>
<ellipse fill="#ffffff" stroke="#ffffff" cx="704" cy="-358.5602" rx="28.4127" ry="18"/>
<text text-anchor="middle" x="704" y="-354.3602" font-family="Times,serif" font-size="14.00" fill="#000000">bind</text>
</g>
<!-- socket&#45;&gt;bind -->
<g id="edge1" class="edge">
<title>socket-&gt;bind</title>
<path fill="none" stroke="#000000" d="M704,-546.822C704,-510.6798 704,-430.0136 704,-386.9432"/>
<polygon fill="#000000" stroke="#000000" points="707.5001,-386.8531 704,-376.8531 700.5001,-386.8531 707.5001,-386.8531"/>
</g>
<!-- socket&#45;&gt;listen -->
<g id="edge2" class="edge">
<title>socket-&gt;listen</title>
<path fill="none" stroke="#000000" d="M711.2205,-547.1834C725.7892,-510.9204 758.7799,-428.8031 776.0281,-385.8704"/>
<polygon fill="#000000" stroke="#000000" points="779.375,-386.9281 779.8553,-376.3442 772.8796,-384.3185 779.375,-386.9281"/>
</g>
<!-- equivalent -->
<g id="node3" class="node">
<title>equivalent</title>
<ellipse fill="#ffffff" stroke="#ffffff" cx="599" cy="-565.156" rx="51.0242" ry="18"/>
<text text-anchor="middle" x="599" y="-560.956" font-family="Times,serif" font-size="14.00" fill="#000000">equivalent</text>
</g>
<!-- print__ -->
<g id="node4" class="node">
<title>print__</title>
<ellipse fill="#ffffff" stroke="#ffffff" cx="491" cy="-565.156" rx="38.8652" ry="18"/>
<text text-anchor="middle" x="491" y="-560.956" font-family="Times,serif" font-size="14.00" fill="#000000">print__</text>
</g>
<!-- send_to -->
<g id="node5" class="node">
<title>send_to</title>
<ellipse fill="#ffffff" stroke="#ffffff" cx="393" cy="-565.156" rx="41.1529" ry="18"/>
<text text-anchor="middle" x="393" y="-560.956" font-family="Times,serif" font-size="14.00" fill="#000000">send_to</text>
</g>
<!-- condition -->
<g id="node6" class="node">
<title>condition</title>
<ellipse fill="#ffffff" stroke="#ffffff" cx="286" cy="-565.156" rx="47.5332" ry="18"/>
<text text-anchor="middle" x="286" y="-560.956" font-family="Times,serif" font-size="14.00" fill="#000000">condition</text>
</g>
<!-- logic -->
<g id="node7" class="node">
<title>logic</title>
<ellipse fill="#ffffff" stroke="#ffffff" cx="190" cy="-565.156" rx="30.1958" ry="18"/>
<text text-anchor="middle" x="190" y="-560.956" font-family="Times,serif" font-size="14.00" fill="#000000">logic</text>
</g>
<!-- host -->
<g id="node8" class="node">
<title>host</title>
<ellipse fill="#ffffff" stroke="#ffffff" cx="115" cy="-565.156" rx="27.2661" ry="18"/>
<text text-anchor="middle" x="115" y="-560.956" font-family="Times,serif" font-size="14.00" fill="#000000">host</text>
</g>
<!-- port -->
<g id="node9" class="node">
<title>port</title>
<ellipse fill="#ffffff" stroke="#ffffff" cx="43" cy="-565.156" rx="27" ry="18"/>
<text text-anchor="middle" x="43" y="-560.956" font-family="Times,serif" font-size="14.00" fill="#000000">port</text>
</g>
<!-- save -->
<g id="node12" class="node">
<title>save</title>
<ellipse fill="#ffffff" stroke="#ffffff" cx="879" cy="-565.156" rx="28.3893" ry="18"/>
<text text-anchor="middle" x="879" y="-560.956" font-family="Times,serif" font-size="14.00" fill="#000000">save</text>
</g>
<!-- start -->
<g id="node13" class="node">
<title>start</title>
<polygon fill="#d3d3d3" stroke="#000000" points="1072,-583.156 1032.7627,-565.156 1072,-547.156 1111.2373,-565.156 1072,-583.156"/>
<polyline fill="none" stroke="#000000" points="1043.6698,-570.1596 1043.6698,-560.1524 "/>
<polyline fill="none" stroke="#000000" points="1061.0929,-552.1596 1082.9071,-552.1596 "/>
<polyline fill="none" stroke="#000000" points="1100.3302,-560.1524 1100.3302,-570.1596 "/>
<polyline fill="none" stroke="#000000" points="1082.9071,-578.1524 1061.0929,-578.1524 "/>
<text text-anchor="middle" x="1072" y="-560.956" font-family="Times,serif" font-size="14.00" fill="#000000">start</text>
</g>
<!-- memory -->
<g id="node14" class="node">
<title>memory</title>
<ellipse fill="#d3d3d3" stroke="#000000" cx="974" cy="-358.5602" rx="43.4396" ry="18"/>
<text text-anchor="middle" x="974" y="-354.3602" font-family="Times,serif" font-size="14.00" fill="#000000">memory</text>
</g>
<!-- start&#45;&gt;memory -->
<g id="edge4" class="edge">
<title>start-&gt;memory</title>
<path fill="none" stroke="#000000" d="M1064.9521,-550.2981C1048.5905,-515.806 1007.8349,-429.8882 986.884,-385.7213"/>
<polygon fill="#000000" stroke="#000000" points="989.9376,-383.9919 982.4894,-376.457 983.6131,-386.9921 989.9376,-383.9919"/>
</g>
<!-- server -->
<g id="node15" class="node">
<title>server</title>
<ellipse fill="#d3d3d3" stroke="#000000" cx="1070" cy="-358.5602" rx="34.7476" ry="18"/>
<text text-anchor="middle" x="1070" y="-354.3602" font-family="Times,serif" font-size="14.00" fill="#000000">server</text>
</g>
<!-- start&#45;&gt;server -->
<g id="edge5" class="edge">
<title>start-&gt;server</title>
<path fill="none" stroke="#000000" d="M1071.826,-547.1834C1071.4773,-511.1639 1070.6907,-429.9039 1070.2728,-386.7406"/>
<polygon fill="#000000" stroke="#000000" points="1073.7717,-386.604 1070.175,-376.6384 1066.7721,-386.6718 1073.7717,-386.604"/>
</g>
<!-- txt_ip -->
<g id="node19" class="node">
<title>txt_ip</title>
<polygon fill="#ffff00" stroke="#ffff00" points="1262.1729,-489.531 1213.8271,-489.531 1213.8271,-441.1852 1262.1729,-441.1852 1262.1729,-489.531"/>
<text text-anchor="middle" x="1238" y="-461.1581" font-family="Times,serif" font-size="14.00" fill="#000000">txt_ip</text>
</g>
<!-- start&#45;&gt;txt_ip -->
<g id="edge15" class="edge">
<title>start-&gt;txt_ip</title>
<path fill="none" stroke="#000000" d="M1101.3872,-560.5314C1125.4533,-555.6833 1159.5594,-546.3007 1185,-529.156 1197.2992,-520.8674 1208.2811,-508.9209 1217.0146,-497.6017"/>
<polygon fill="#000000" stroke="#000000" points="1219.847,-499.658 1222.9633,-489.5318 1214.2124,-495.5044 1219.847,-499.658"/>
<text text-anchor="middle" x="1235.8524" y="-516.556" font-family="Times,serif" font-size="14.00" fill="#000000">External txt</text>
</g>
<!-- txt_key -->
<g id="node20" class="node">
<title>txt_key</title>
<polygon fill="#ffff00" stroke="#ffff00" points="1186.9958,-494.3539 1129.0042,-494.3539 1129.0042,-436.3623 1186.9958,-436.3623 1186.9958,-494.3539"/>
<text text-anchor="middle" x="1158" y="-461.1581" font-family="Times,serif" font-size="14.00" fill="#000000">txt_key</text>
</g>
<!-- start&#45;&gt;txt_key -->
<g id="edge16" class="edge">
<title>start-&gt;txt_key</title>
<path fill="none" stroke="#000000" d="M1083.243,-552.1092C1094.1403,-539.4635 1111.1857,-519.6833 1126.2498,-502.2023"/>
<polygon fill="#000000" stroke="#000000" points="1129.1259,-504.2264 1133.0025,-494.3662 1123.8231,-499.6568 1129.1259,-504.2264"/>
<text text-anchor="middle" x="1147.8524" y="-516.556" font-family="Times,serif" font-size="14.00" fill="#000000">External txt</text>
</g>
<!-- comand_line -->
<g id="node16" class="node">
<title>comand_line</title>
<ellipse fill="#d3d3d3" stroke="#000000" cx="1051" cy="-145.2146" rx="60.8371" ry="18"/>
<text text-anchor="middle" x="1051" y="-141.0146" font-family="Times,serif" font-size="14.00" fill="#000000">comand_line</text>
</g>
<!-- memory&#45;&gt;comand_line -->
<g id="edge6" class="edge">
<title>memory-&gt;comand_line</title>
<path fill="none" stroke="#000000" d="M976.5852,-340.3705C986.6998,-302.8039 1017.6238,-216.4767 1036.5407,-172.3145"/>
<polygon fill="#000000" stroke="#000000" points="1039.7899,-173.6202 1040.6125,-163.0574 1033.3823,-170.8018 1039.7899,-173.6202"/>
</g>
<!-- run_server -->
<g id="node18" class="node">
<title>run_server</title>
<ellipse fill="#d3d3d3" stroke="#000000" cx="1287" cy="-259.7874" rx="52.1482" ry="18"/>
<text text-anchor="middle" x="1287" y="-255.5874" font-family="Times,serif" font-size="14.00" fill="#000000">run_server</text>
</g>
<!-- memory&#45;&gt;run_server -->
<g id="edge11" class="edge">
<title>memory-&gt;run_server</title>
<path fill="none" stroke="#000000" d="M998.1353,-343.4214C1005.8196,-339.2492 1014.5301,-335.1601 1023,-332.5602 1109.7541,-305.9303 1142.454,-346.0202 1226,-310.5874 1240.0894,-304.6119 1253.4334,-294.2618 1264.0276,-284.4567"/>
<polygon fill="#000000" stroke="#000000" points="1266.4789,-286.955 1271.2271,-277.4837 1261.6089,-281.9268 1266.4789,-286.955"/>
</g>
<!-- server&#45;&gt;comand_line -->
<g id="edge7" class="edge">
<title>server-&gt;comand_line</title>
<path fill="none" stroke="#000000" d="M1067.872,-340.2558C1067.2383,-334.5869 1066.5633,-328.3181 1066,-322.5602 1060.8693,-270.1143 1055.9176,-208.8395 1053.1834,-173.7747"/>
<polygon fill="#000000" stroke="#000000" points="1056.6382,-173.0551 1052.3761,-163.3554 1049.6591,-173.5959 1056.6382,-173.0551"/>
</g>
<!-- server&#45;&gt;run_server -->
<g id="edge12" class="edge">
<title>server-&gt;run_server</title>
<path fill="none" stroke="#000000" d="M1102.9154,-352.548C1135.6019,-345.6551 1186.4184,-332.4007 1226,-310.5874 1239.0811,-303.3785 1252.0189,-293.169 1262.5904,-283.7914"/>
<polygon fill="#000000" stroke="#000000" points="1265.1642,-286.1803 1270.1764,-276.846 1260.4373,-281.0173 1265.1642,-286.1803"/>
</g>
<!-- comand_line&#45;&gt;memory -->
<g id="edge8" class="edge">
<title>comand_line-&gt;memory</title>
<path fill="none" stroke="#000000" d="M1048.4055,-163.4389C1038.2793,-201.0309 1007.3588,-287.344 988.4487,-331.4852"/>
<polygon fill="#000000" stroke="#000000" points="985.2016,-330.1746 984.3784,-340.7374 991.609,-332.9934 985.2016,-330.1746"/>
</g>
<!-- comand_line&#45;&gt;server -->
<g id="edge9" class="edge">
<title>comand_line-&gt;server</title>
<path fill="none" stroke="#000000" d="M1055.2399,-163.493C1056.5067,-169.1609 1057.8604,-175.4356 1059,-181.2146 1062.0366,-196.6129 1063.3879,-200.4027 1065,-216.0146 1069.0823,-255.5476 1070.0112,-301.5388 1070.1361,-330.352"/>
<polygon fill="#000000" stroke="#000000" points="1066.6362,-330.5092 1070.1494,-340.5045 1073.6362,-330.4999 1066.6362,-330.5092"/>
</g>
<!-- end -->
<g id="node17" class="node">
<title>end</title>
<polygon fill="#d3d3d3" stroke="#000000" points="1091.2152,-52.3225 1054.7848,-52.3225 1054.7848,-15.8921 1091.2152,-15.8921 1091.2152,-52.3225"/>
<polyline fill="none" stroke="#000000" points="1066.7848,-52.3225 1054.7848,-40.3225 "/>
<polyline fill="none" stroke="#000000" points="1054.7848,-27.8921 1066.7848,-15.8921 "/>
<polyline fill="none" stroke="#000000" points="1079.2152,-15.8921 1091.2152,-27.8921 "/>
<polyline fill="none" stroke="#000000" points="1091.2152,-40.3225 1079.2152,-52.3225 "/>
<text text-anchor="middle" x="1073" y="-29.9073" font-family="Times,serif" font-size="14.00" fill="#000000">end</text>
</g>
<!-- comand_line&#45;&gt;end -->
<g id="edge10" class="edge">
<title>comand_line-&gt;end</title>
<path fill="none" stroke="#000000" d="M1054.6329,-126.8675C1058.104,-109.3369 1063.3866,-82.658 1067.3969,-62.4047"/>
<polygon fill="#000000" stroke="#000000" points="1070.8527,-62.9711 1069.3618,-52.4817 1063.986,-61.6114 1070.8527,-62.9711"/>
</g>
<!-- run_server&#45;&gt;end -->
<g id="edge14" class="edge">
<title>run_server-&gt;end</title>
<path fill="none" stroke="#000000" d="M1270.5631,-242.4534C1233.1077,-202.9537 1141.2692,-106.1026 1097.2707,-59.7027"/>
<polygon fill="#000000" stroke="#000000" points="1099.8055,-57.2892 1090.385,-52.4411 1094.7261,-62.1058 1099.8055,-57.2892"/>
</g>
<!-- run_server&#45;&gt;run_server -->
<g id="edge13" class="edge">
<title>run_server-&gt;run_server</title>
<path fill="none" stroke="#000000" d="M1327.4691,-271.3414C1343.7003,-271.9942 1357.3238,-268.1429 1357.3238,-259.7874 1357.3238,-253.2597 1349.0087,-249.4811 1337.6312,-248.4516"/>
<polygon fill="#000000" stroke="#000000" points="1337.542,-244.9489 1327.4691,-248.2334 1337.3917,-251.9473 1337.542,-244.9489"/>
</g>
<!-- txt_comands -->
<g id="node21" class="node">
<title>txt_comands</title>
<polygon fill="#ffff00" stroke="#ffff00" points="1216.5468,-303.3342 1129.4532,-303.3342 1129.4532,-216.2406 1216.5468,-216.2406 1216.5468,-303.3342"/>
<text text-anchor="middle" x="1173" y="-255.5874" font-family="Times,serif" font-size="14.00" fill="#000000">txt_comands</text>
</g>
<!-- txt_comands&#45;&gt;comand_line -->
<g id="edge17" class="edge">
<title>txt_comands-&gt;comand_line</title>
<path fill="none" stroke="#000000" d="M1129.2998,-218.7476C1111.7164,-202.2346 1092.0423,-183.7583 1076.814,-169.457"/>
<polygon fill="#000000" stroke="#000000" points="1078.9759,-166.6859 1069.2904,-162.3915 1074.1839,-171.7886 1078.9759,-166.6859"/>
<text text-anchor="middle" x="1136.8524" y="-185.4146" font-family="Times,serif" font-size="14.00" fill="#000000">External txt</text>
</g>
</g>
</svg>