<?xml version="1.0" encoding="UTF-8" standalone="no"?><!DOCTYPE svg PUBLIC "-//W3C//DTD SVG 1.1//EN" "http://www.w3.org/Graphics/SVG/1.1/DTD/svg11.dtd"><!-- Generated by graphviz version 2.40.1 (20161225.0304)
 --><!-- Title: G Pages: 1 --><svg xmlns="http://www.w3.org/2000/svg" xmlns:xlink="http://www.w3.org/1999/xlink" width="1191pt" height="355pt" viewBox="0.00 0.00 1191.00 355.20">
<g id="graph0" class="graph" transform="scale(1 1) rotate(0) translate(4 351.2)">
<title>G</title>
<polygon fill="#ffffff" stroke="transparent" points="-4,4 -4,-351.2 1187,-351.2 1187,4 -4,4"/>
<g id="clust1" class="cluster">
<title>cluster_0</title>
<polygon fill="#d3d3d3" stroke="#d3d3d3" points="8,-185.6 8,-339.2 835,-339.2 835,-185.6 8,-185.6"/>
<text text-anchor="middle" x="421.5" y="-322.6" font-family="Times,serif" font-size="14.00" fill="#000000">Server</text>
</g>
<g id="clust2" class="cluster">
<title>cluster_1</title>
<polygon fill="#d3d3d3" stroke="#d3d3d3" points="1103,-185.6 1103,-262.4 1175,-262.4 1175,-185.6 1103,-185.6"/>
<text text-anchor="middle" x="1139" y="-245.8" font-family="Times,serif" font-size="14.00" fill="#000000">Memory</text>
</g>
<g id="clust4" class="cluster">
<title>cluster_t_1</title>
<polygon fill="none" stroke="#d3d3d3" points="843,-92.8 843,-262.4 1095,-262.4 1095,-92.8 843,-92.8"/>
<text text-anchor="middle" x="969" y="-245.8" font-family="Times,serif" font-size="14.00" fill="#000000">main thread</text>
</g>
<g id="clust5" class="cluster">
<title>cluster_2</title>
<polygon fill="none" stroke="#0000ff" points="851,-100.8 851,-177.6 937,-177.6 937,-100.8 851,-100.8"/>
<text text-anchor="middle" x="894" y="-161" font-family="Times,serif" font-size="14.00" fill="#000000">run_server</text>
</g>
<g id="clust6" class="cluster">
<title>cluster_t_2</title>
<polygon fill="none" stroke="#0000ff" points="905,-8 905,-84.8 1043,-84.8 1043,-8 905,-8"/>
<text text-anchor="middle" x="974" y="-68.2" font-family="Times,serif" font-size="14.00" fill="#000000">thread #1</text>
</g>
<!-- points -->
<g id="node1" class="node">
<title>points</title>
<ellipse fill="#ffffff" stroke="#ffffff" cx="140" cy="-288.4" rx="34.7903" ry="18"/>
<text text-anchor="middle" x="140" y="-284.2" font-family="Times,serif" font-size="14.00" fill="#000000">points</text>
</g>
<!-- listen -->
<g id="node11" class="node">
<title>listen</title>
<ellipse fill="#ffffff" stroke="#ffffff" cx="140" cy="-211.6" rx="31.9166" ry="18"/>
<text text-anchor="middle" x="140" y="-207.4" font-family="Times,serif" font-size="14.00" fill="#000000">listen</text>
</g>
<!-- points&#45;&gt;listen -->
<g id="edge3" class="edge">
<title>points-&gt;listen</title>
<path fill="none" stroke="#000000" d="M140,-270.1995C140,-261.1132 140,-249.9176 140,-239.7549"/>
<polygon fill="#000000" stroke="#000000" points="143.5001,-239.6698 140,-229.6699 136.5001,-239.6699 143.5001,-239.6698"/>
</g>
<!-- server -->
<g id="node12" class="node">
<title>server</title>
<ellipse fill="none" stroke="#000000" cx="894" cy="-126.8" rx="34.7476" ry="18"/>
<text text-anchor="middle" x="894" y="-122.6" font-family="Times,serif" font-size="14.00" fill="#000000">server</text>
</g>
<!-- points&#45;&gt;server -->
<g id="edge4" class="edge">
<title>points-&gt;server</title>
<path fill="none" stroke="#000000" d="M166.1334,-276.3738C171.919,-274.0901 178.0892,-271.9375 184,-270.4 198.2982,-266.6809 237.897,-270.8729 250,-262.4 281.361,-240.4452 257.3806,-207.1811 289,-185.6 335.039,-154.1772 717.1691,-134.5708 849.2758,-128.6795"/>
<polygon fill="#000000" stroke="#000000" points="849.6107,-132.1683 859.4469,-128.2311 849.3024,-125.175 849.6107,-132.1683"/>
</g>
<!-- equivalent -->
<g id="node2" class="node">
<title>equivalent</title>
<ellipse fill="#ffffff" stroke="#ffffff" cx="316" cy="-288.4" rx="51.0242" ry="18"/>
<text text-anchor="middle" x="316" y="-284.2" font-family="Times,serif" font-size="14.00" fill="#000000">equivalent</text>
</g>
<!-- equivalent&#45;&gt;server -->
<g id="edge5" class="edge">
<title>equivalent-&gt;server</title>
<path fill="none" stroke="#000000" d="M331.261,-271.127C353.3216,-247.4249 396.5934,-205.4978 443,-185.6 515.6319,-154.4575 750.4085,-136.0672 849.3634,-129.5268"/>
<polygon fill="#000000" stroke="#000000" points="849.5943,-133.0192 859.3457,-128.8769 849.1394,-126.034 849.5943,-133.0192"/>
</g>
<!-- print__ -->
<g id="node3" class="node">
<title>print__</title>
<ellipse fill="#ffffff" stroke="#ffffff" cx="424" cy="-288.4" rx="38.8652" ry="18"/>
<text text-anchor="middle" x="424" y="-284.2" font-family="Times,serif" font-size="14.00" fill="#000000">print__</text>
</g>
<!-- print__&#45;&gt;server -->
<g id="edge6" class="edge">
<title>print__-&gt;server</title>
<path fill="none" stroke="#000000" d="M438.1605,-271.3407C458.6662,-247.8925 499.017,-206.2652 543,-185.6 596.8291,-160.3086 768.1979,-139.8032 849.881,-131.1885"/>
<polygon fill="#000000" stroke="#000000" points="850.2702,-134.667 859.8534,-130.149 849.5444,-127.7048 850.2702,-134.667"/>
</g>
<!-- send_to -->
<g id="node4" class="node">
<title>send_to</title>
<ellipse fill="#ffffff" stroke="#ffffff" cx="522" cy="-288.4" rx="41.1529" ry="18"/>
<text text-anchor="middle" x="522" y="-284.2" font-family="Times,serif" font-size="14.00" fill="#000000">send_to</text>
</g>
<!-- send_to&#45;&gt;server -->
<g id="edge7" class="edge">
<title>send_to-&gt;server</title>
<path fill="none" stroke="#000000" d="M537.4826,-271.3823C559.3839,-248.3729 601.7042,-207.6842 646,-185.6 712.5013,-152.445 798.4722,-137.4858 849.7533,-131.1172"/>
<polygon fill="#000000" stroke="#000000" points="850.3227,-134.5743 859.8405,-129.9201 849.4977,-127.6231 850.3227,-134.5743"/>
</g>
<!-- condition -->
<g id="node5" class="node">
<title>condition</title>
<ellipse fill="#ffffff" stroke="#ffffff" cx="629" cy="-288.4" rx="47.5332" ry="18"/>
<text text-anchor="middle" x="629" y="-284.2" font-family="Times,serif" font-size="14.00" fill="#000000">condition</text>
</g>
<!-- condition&#45;&gt;server -->
<g id="edge8" class="edge">
<title>condition-&gt;server</title>
<path fill="none" stroke="#000000" d="M643.3942,-270.8739C662.6523,-248.4072 698.8273,-209.5081 737,-185.6 773.3262,-162.8484 819.8131,-146.8147 852.7496,-137.2988"/>
<polygon fill="#000000" stroke="#000000" points="853.8305,-140.6307 862.51,-134.5547 851.9359,-133.892 853.8305,-140.6307"/>
</g>
<!-- logic -->
<g id="node6" class="node">
<title>logic</title>
<ellipse fill="#ffffff" stroke="#ffffff" cx="725" cy="-288.4" rx="30.1958" ry="18"/>
<text text-anchor="middle" x="725" y="-284.2" font-family="Times,serif" font-size="14.00" fill="#000000">logic</text>
</g>
<!-- logic&#45;&gt;server -->
<g id="edge9" class="edge">
<title>logic-&gt;server</title>
<path fill="none" stroke="#000000" d="M735.1185,-271.266C748.5039,-249.5666 773.7295,-211.8475 802,-185.6 819.3504,-169.4912 841.6697,-155.1046 859.9794,-144.5942"/>
<polygon fill="#000000" stroke="#000000" points="861.8612,-147.5518 868.8731,-139.6093 858.4386,-141.4456 861.8612,-147.5518"/>
</g>
<!-- host -->
<g id="node7" class="node">
<title>host</title>
<ellipse fill="#ffffff" stroke="#ffffff" cx="800" cy="-288.4" rx="27.2661" ry="18"/>
<text text-anchor="middle" x="800" y="-284.2" font-family="Times,serif" font-size="14.00" fill="#000000">host</text>
</g>
<!-- host&#45;&gt;server -->
<g id="edge10" class="edge">
<title>host-&gt;server</title>
<path fill="none" stroke="#000000" d="M804.5396,-270.3374C810.4066,-249.0093 821.9378,-212.9779 839,-185.6 847.2098,-172.4266 858.6461,-159.6179 868.9649,-149.3362"/>
<polygon fill="#000000" stroke="#000000" points="871.4596,-151.7927 876.219,-142.3271 866.5955,-146.7587 871.4596,-151.7927"/>
</g>
<!-- port -->
<g id="node8" class="node">
<title>port</title>
<ellipse fill="#ffffff" stroke="#ffffff" cx="220" cy="-288.4" rx="27" ry="18"/>
<text text-anchor="middle" x="220" y="-284.2" font-family="Times,serif" font-size="14.00" fill="#000000">port</text>
</g>
<!-- port&#45;&gt;server -->
<g id="edge11" class="edge">
<title>port-&gt;server</title>
<path fill="none" stroke="#000000" d="M240.9683,-276.9237C245.8137,-274.5524 251.0127,-272.2247 256,-270.4 270.1727,-265.2146 276.7615,-271.2302 289,-262.4 321.6422,-238.8483 302.8685,-206.9363 337,-185.6 380.1139,-158.6486 724.5776,-136.4871 849.2022,-129.2788"/>
<polygon fill="#000000" stroke="#000000" points="849.7426,-132.7537 859.5258,-128.6869 849.3419,-125.7652 849.7426,-132.7537"/>
</g>
<!-- socket -->
<g id="node9" class="node">
<title>socket</title>
<ellipse fill="#ffffff" stroke="#ffffff" cx="52" cy="-288.4" rx="35.9135" ry="18"/>
<text text-anchor="middle" x="52" y="-284.2" font-family="Times,serif" font-size="14.00" fill="#000000">socket</text>
</g>
<!-- bind -->
<g id="node10" class="node">
<title>bind</title>
<ellipse fill="#ffffff" stroke="#ffffff" cx="57" cy="-211.6" rx="28.4127" ry="18"/>
<text text-anchor="middle" x="57" y="-207.4" font-family="Times,serif" font-size="14.00" fill="#000000">bind</text>
</g>
<!-- socket&#45;&gt;bind -->
<g id="edge1" class="edge">
<title>socket-&gt;bind</title>
<path fill="none" stroke="#000000" d="M53.1849,-270.1995C53.7765,-261.1132 54.5054,-249.9176 55.167,-239.7549"/>
<polygon fill="#000000" stroke="#000000" points="58.6664,-239.8762 55.8236,-229.6699 51.6812,-239.4213 58.6664,-239.8762"/>
</g>
<!-- socket&#45;&gt;listen -->
<g id="edge2" class="edge">
<title>socket-&gt;listen</title>
<path fill="none" stroke="#000000" d="M76.3452,-274.9323C82.3465,-271.1865 88.5973,-266.9012 94,-262.4 103.3782,-254.5866 112.6275,-244.877 120.3451,-236.0459"/>
<polygon fill="#000000" stroke="#000000" points="123.1516,-238.1482 126.9617,-228.2622 117.8182,-233.6144 123.1516,-238.1482"/>
</g>
<!-- socket&#45;&gt;server -->
<g id="edge12" class="edge">
<title>socket-&gt;server</title>
<path fill="none" stroke="#000000" d="M78.5731,-276.0694C84.2243,-273.8633 90.2294,-271.8188 96,-270.4 132.8474,-261.3406 147.1071,-279.4608 181,-262.4 221.9863,-241.7686 208.985,-206.1742 250,-185.6 303.3034,-158.8615 711.7178,-136.0042 849.0855,-129.0033"/>
<polygon fill="#000000" stroke="#000000" points="849.4483,-132.4895 859.2587,-128.4886 849.0946,-125.4985 849.4483,-132.4895"/>
</g>
<!-- bind&#45;&gt;server -->
<g id="edge13" class="edge">
<title>bind-&gt;server</title>
<path fill="none" stroke="#000000" d="M75.2786,-197.6272C82.3231,-192.9788 90.6806,-188.3023 99,-185.6 240.076,-139.7759 702.2851,-129.4657 848.9306,-127.3239"/>
<polygon fill="#000000" stroke="#000000" points="848.9852,-130.8236 858.935,-127.1834 848.8868,-123.8243 848.9852,-130.8236"/>
</g>
<!-- listen&#45;&gt;server -->
<g id="edge14" class="edge">
<title>listen-&gt;server</title>
<path fill="none" stroke="#000000" d="M166.5708,-201.5387C182.4337,-195.9464 203.1076,-189.3739 222,-185.6 454.8436,-139.0879 740.3763,-129.3678 849.0905,-127.3366"/>
<polygon fill="#000000" stroke="#000000" points="849.4166,-130.8316 859.3543,-127.1582 849.2949,-123.8326 849.4166,-130.8316"/>
</g>
<!-- comand_line -->
<g id="node16" class="node">
<title>comand_line</title>
<ellipse fill="#d3d3d3" stroke="#000000" cx="1022" cy="-211.6" rx="60.8371" ry="18"/>
<text text-anchor="middle" x="1022" y="-207.4" font-family="Times,serif" font-size="14.00" fill="#000000">comand_line</text>
</g>
<!-- server&#45;&gt;comand_line -->
<g id="edge19" class="edge">
<title>server-&gt;comand_line</title>
<path fill="none" stroke="#000000" d="M896.5371,-144.8365C902.2309,-155.5973 912.2321,-168.8294 924,-177.6 935.3123,-186.031 948.9668,-192.6183 962.4796,-197.6545"/>
<polygon fill="#000000" stroke="#000000" points="961.6637,-201.0762 972.2586,-201.0517 963.9609,-194.4639 961.6637,-201.0762"/>
</g>
<!-- run_server -->
<g id="node18" class="node">
<title>run_server</title>
<ellipse fill="#d3d3d3" stroke="#000000" cx="965" cy="-34" rx="52.1482" ry="18"/>
<text text-anchor="middle" x="965" y="-29.8" font-family="Times,serif" font-size="14.00" fill="#000000">run_server</text>
</g>
<!-- server&#45;&gt;run_server -->
<g id="edge24" class="edge">
<title>server-&gt;run_server</title>
<path fill="none" stroke="#000000" d="M907.0225,-109.779C917.6964,-95.8278 932.9759,-75.8569 945.1696,-59.9191"/>
<polygon fill="#000000" stroke="#000000" points="948.2809,-61.6125 951.5776,-51.5436 942.7214,-57.359 948.2809,-61.6125"/>
</g>
<!-- save -->
<g id="node13" class="node">
<title>save</title>
<ellipse fill="#ffffff" stroke="#ffffff" cx="1139" cy="-211.6" rx="28.3893" ry="18"/>
<text text-anchor="middle" x="1139" y="-207.4" font-family="Times,serif" font-size="14.00" fill="#000000">save</text>
</g>
<!-- memory -->
<g id="node14" class="node">
<title>memory</title>
<ellipse fill="none" stroke="#000000" cx="1044" cy="-126.8" rx="43.4396" ry="18"/>
<text text-anchor="middle" x="1044" y="-122.6" font-family="Times,serif" font-size="14.00" fill="#000000">memory</text>
</g>
<!-- save&#45;&gt;memory -->
<g id="edge15" class="edge">
<title>save-&gt;memory</title>
<path fill="none" stroke="#000000" d="M1122.4523,-196.829C1108.0159,-183.9426 1086.8233,-165.0255 1070.1028,-150.1001"/>
<polygon fill="#000000" stroke="#000000" points="1072.0939,-147.1859 1062.3029,-143.1377 1067.4324,-152.4081 1072.0939,-147.1859"/>
</g>
<!-- memory&#45;&gt;comand_line -->
<g id="edge18" class="edge">
<title>memory-&gt;comand_line</title>
<path fill="none" stroke="#000000" d="M1044.9285,-145.0503C1043.1388,-156.3835 1039.5397,-171.17 1035.5539,-183.9261"/>
<polygon fill="#000000" stroke="#000000" points="1032.1654,-183.0221 1032.3016,-193.6161 1038.8016,-185.2495 1032.1654,-183.0221"/>
</g>
<!-- memory&#45;&gt;run_server -->
<g id="edge23" class="edge">
<title>memory-&gt;run_server</title>
<path fill="none" stroke="#000000" d="M1029.5102,-109.779C1017.5236,-95.6986 1000.3172,-75.4865 986.6888,-59.4775"/>
<polygon fill="#000000" stroke="#000000" points="989.0821,-56.8894 979.9347,-51.5436 983.7519,-61.4269 989.0821,-56.8894"/>
</g>
<!-- start -->
<g id="node15" class="node">
<title>start</title>
<polygon fill="#d3d3d3" stroke="#000000" points="897,-229.6 857.7627,-211.6 897,-193.6 936.2373,-211.6 897,-229.6"/>
<polyline fill="none" stroke="#000000" points="868.6698,-216.6036 868.6698,-206.5964 "/>
<polyline fill="none" stroke="#000000" points="886.0929,-198.6036 907.9071,-198.6036 "/>
<polyline fill="none" stroke="#000000" points="925.3302,-206.5964 925.3302,-216.6036 "/>
<polyline fill="none" stroke="#000000" points="907.9071,-224.5964 886.0929,-224.5964 "/>
<text text-anchor="middle" x="897" y="-207.4" font-family="Times,serif" font-size="14.00" fill="#000000">start</text>
</g>
<!-- start&#45;&gt;server -->
<g id="edge17" class="edge">
<title>start-&gt;server</title>
<path fill="none" stroke="#000000" d="M896.3638,-193.6161C895.9687,-182.4492 895.4524,-167.8547 895.0031,-155.1553"/>
<polygon fill="#000000" stroke="#000000" points="898.4971,-154.9203 894.6456,-145.0503 891.5015,-155.1678 898.4971,-154.9203"/>
</g>
<!-- start&#45;&gt;memory -->
<g id="edge16" class="edge">
<title>start-&gt;memory</title>
<path fill="none" stroke="#000000" d="M914.8738,-201.7846C925.4151,-196.3462 939.1651,-189.8462 952,-185.6 969.2124,-179.9057 975.9657,-186.0613 992,-177.6 1004.034,-171.2497 1015.1547,-161.2382 1023.997,-151.7756"/>
<polygon fill="#000000" stroke="#000000" points="1026.8358,-153.8499 1030.8587,-144.0485 1021.6016,-149.2019 1026.8358,-153.8499"/>
</g>
<!-- comand_line&#45;&gt;server -->
<g id="edge21" class="edge">
<title>comand_line-&gt;server</title>
<path fill="none" stroke="#000000" d="M981.0327,-198.1287C967.8346,-193.034 953.6708,-186.2982 942,-177.6 932.4441,-170.4781 924.0532,-160.4143 916.8664,-151.1207"/>
<polygon fill="#000000" stroke="#000000" points="919.4521,-148.7393 910.6059,-142.9088 913.8853,-152.9833 919.4521,-148.7393"/>
</g>
<!-- comand_line&#45;&gt;memory -->
<g id="edge20" class="edge">
<title>comand_line-&gt;memory</title>
<path fill="none" stroke="#000000" d="M1021.0953,-193.1997C1022.9031,-181.8224 1026.5184,-167.0077 1030.5133,-154.2592"/>
<polygon fill="#000000" stroke="#000000" points="1033.8972,-155.1774 1033.7713,-144.5833 1027.2631,-152.9436 1033.8972,-155.1774"/>
</g>
<!-- end -->
<g id="node17" class="node">
<title>end</title>
<polygon fill="#d3d3d3" stroke="#000000" points="983.2152,-145.0152 946.7848,-145.0152 946.7848,-108.5848 983.2152,-108.5848 983.2152,-145.0152"/>
<polyline fill="none" stroke="#000000" points="958.7848,-145.0152 946.7848,-133.0152 "/>
<polyline fill="none" stroke="#000000" points="946.7848,-120.5848 958.7848,-108.5848 "/>
<polyline fill="none" stroke="#000000" points="971.2152,-108.5848 983.2152,-120.5848 "/>
<polyline fill="none" stroke="#000000" points="983.2152,-133.0152 971.2152,-145.0152 "/>
<text text-anchor="middle" x="965" y="-122.6" font-family="Times,serif" font-size="14.00" fill="#000000">end</text>
</g>
<!-- comand_line&#45;&gt;end -->
<g id="edge22" class="edge">
<title>comand_line-&gt;end</title>
<path fill="none" stroke="#000000" d="M1005.2937,-194.2484C1000.7219,-189.0921 995.9443,-183.2949 992,-177.6 986.9867,-170.3618 982.2244,-162.0846 978.1347,-154.3424"/>
<polygon fill="#000000" stroke="#000000" points="981.169,-152.5882 973.5081,-145.2696 974.933,-155.7682 981.169,-152.5882"/>
</g>
<!-- run_server&#45;&gt;end -->
<g id="edge26" class="edge">
<title>run_server-&gt;end</title>
<path fill="none" stroke="#000000" d="M965,-52.2962C965,-65.3785 965,-83.2428 965,-98.1991"/>
<polygon fill="#000000" stroke="#000000" points="961.5001,-98.4657 965,-108.4657 968.5001,-98.4657 961.5001,-98.4657"/>
</g>
<!-- run_server&#45;&gt;run_server -->
<g id="edge25" class="edge">
<title>run_server-&gt;run_server</title>
<path fill="none" stroke="#000000" d="M993.1621,-49.2117C1014.1603,-54.5237 1035.3238,-49.4531 1035.3238,-34 1035.3238,-21.0822 1020.5349,-15.4196 1003.4163,-17.0122"/>
<polygon fill="#000000" stroke="#000000" points="1002.418,-13.6329 993.1621,-18.7883 1003.6127,-20.5302 1002.418,-13.6329"/>
</g>
<!-- txt -->
<g id="node19" class="node">
<title>txt</title>
<polygon fill="#ffff00" stroke="#ffff00" points="1040,-306.4 1004,-306.4 1004,-270.4 1040,-270.4 1040,-306.4"/>
<text text-anchor="middle" x="1022" y="-284.2" font-family="Times,serif" font-size="14.00" fill="#000000">txt</text>
</g>
<!-- txt&#45;&gt;comand_line -->
<g id="edge27" class="edge">
<title>txt-&gt;comand_line</title>
<path fill="none" stroke="#000000" d="M1022,-270.1995C1022,-261.1132 1022,-249.9176 1022,-239.7549"/>
<polygon fill="#000000" stroke="#000000" points="1025.5001,-239.6698 1022,-229.6699 1018.5001,-239.6699 1025.5001,-239.6698"/>
</g>
</g>
</svg>